<?xml version="1.0" encoding="UTF-8"?>
<!DOCTYPE svg PUBLIC "-//W3C//DTD SVG 1.1//EN" "http://www.w3.org/Graphics/SVG/1.1/DTD/svg11.dtd">
<svg xmlns="http://www.w3.org/2000/svg" version="1.1" width="50px" height="50px" style="shape-rendering:geometricPrecision; text-rendering:geometricPrecision; image-rendering:optimizeQuality; fill-rule:evenodd; clip-rule:evenodd" xmlns:xlink="http://www.w3.org/1999/xlink">
<g><path style="opacity:0.64" fill="#000000" d="M 21.5,-0.5 C 23.5,-0.5 25.5,-0.5 27.5,-0.5C 30.5139,3.00503 33.1806,6.83836 35.5,11C 37.2555,11.1405 38.9222,10.6405 40.5,9.5C 41.4941,14.456 41.8275,19.456 41.5,24.5C 36.6121,23.0531 32.2787,20.5531 28.5,17C 29.8678,15.6598 31.2011,14.3264 32.5,13C 30.7582,9.51719 28.7582,6.18385 26.5,3C 25.1667,2.33333 23.8333,2.33333 22.5,3C 20.375,6.08227 18.375,9.24893 16.5,12.5C 15.675,13.3857 14.675,13.719 13.5,13.5C 15.1398,8.21732 17.8065,3.55065 21.5,-0.5 Z M 37.5,14.5 C 38.7879,16.0348 38.7879,17.7015 37.5,19.5C 33.7713,17.9294 33.7713,16.2627 37.5,14.5 Z"/></g>
<g><path style="opacity:0.687" fill="#000000" d="M -0.5,41.5 C -0.5,39.1667 -0.5,36.8333 -0.5,34.5C 1.14175,31.8975 2.80841,29.2308 4.5,26.5C 3.65327,25.1552 2.4866,24.1552 1,23.5C 0.333333,22.8333 0.333333,22.1667 1,21.5C 4.75004,19.0411 8.58337,16.7078 12.5,14.5C 13.4941,19.456 13.8275,24.456 13.5,29.5C 11.4176,29.528 9.5843,28.8613 8,27.5C 4.81206,30.9719 3.1454,34.9719 3,39.5C 8.0224,40.9659 13.1891,41.9659 18.5,42.5C 12.8625,43.6632 7.19586,43.8299 1.5,43C 0.955796,42.2828 0.28913,41.7828 -0.5,41.5 Z M 9.5,19.5 C 10.6225,21.2884 10.7891,23.2884 10,25.5C 8.92644,24.3816 7.75978,23.3816 6.5,22.5C 7.33977,21.265 8.33977,20.265 9.5,19.5 Z"/></g>
<g><path style="opacity:0.715" fill="#000000" d="M 49.5,34.5 C 49.5,36.8333 49.5,39.1667 49.5,41.5C 48.7109,41.7828 48.0442,42.2828 47.5,43C 42.8452,43.4992 38.1785,43.6658 33.5,43.5C 33.5,45.5 33.5,47.5 33.5,49.5C 32.5,49.5 31.5,49.5 30.5,49.5C 27.2085,47.5419 24.2085,45.2085 21.5,42.5C 24.5417,38.6418 28.5417,36.3084 33.5,35.5C 33.5,37.5 33.5,39.5 33.5,41.5C 37.8764,41.886 42.0431,41.2194 46,39.5C 46.6667,38.1667 46.6667,36.8333 46,35.5C 44.2467,32.9952 42.7467,30.3286 41.5,27.5C 42,27.1667 42.5,26.8333 43,26.5C 45.7143,28.715 47.881,31.3817 49.5,34.5 Z M 29.5,39.5 C 30.6935,39.9704 31.3601,40.9704 31.5,42.5C 31.1667,43.5 30.8333,44.5 30.5,45.5C 29.1667,44.5 27.8333,43.5 26.5,42.5C 27.7701,41.7124 28.7701,40.7124 29.5,39.5 Z"/></g>
</svg>
