<?xml version="1.0" encoding="UTF-8"?>
<!DOCTYPE svg PUBLIC "-//W3C//DTD SVG 1.1//EN" "http://www.w3.org/Graphics/SVG/1.1/DTD/svg11.dtd">
<svg xmlns="http://www.w3.org/2000/svg" version="1.1" width="48px" height="48px" style="shape-rendering:geometricPrecision; text-rendering:geometricPrecision; image-rendering:optimizeQuality; fill-rule:evenodd; clip-rule:evenodd" xmlns:xlink="http://www.w3.org/1999/xlink">
<g><path style="opacity:0.998" fill="#0782d8" d="M 19.5,23.5 C 16.1667,23.5 12.8333,23.5 9.5,23.5C 9.5,17.5 9.5,11.5 9.5,5.5C 12.8333,5.5 16.1667,5.5 19.5,5.5C 19.5,11.5 19.5,17.5 19.5,23.5 Z"/></g>
<g><path style="opacity:0.998" fill="#0782d8" d="M 37.5,23.5 C 34.1667,23.5 30.8333,23.5 27.5,23.5C 27.5,17.5 27.5,11.5 27.5,5.5C 30.8333,5.5 34.1667,5.5 37.5,5.5C 37.5,11.5 37.5,17.5 37.5,23.5 Z"/></g>
<g><path style="opacity:1" fill="#036fc7" d="M 9.5,23.5 C 12.8333,23.5 16.1667,23.5 19.5,23.5C 19.5,29.5 19.5,35.5 19.5,41.5C 16.1667,41.5 12.8333,41.5 9.5,41.5C 9.5,35.5 9.5,29.5 9.5,23.5 Z"/></g>
<g><path style="opacity:1" fill="#036fc7" d="M 27.5,23.5 C 30.8333,23.5 34.1667,23.5 37.5,23.5C 37.5,29.5 37.5,35.5 37.5,41.5C 34.1667,41.5 30.8333,41.5 27.5,41.5C 27.5,35.5 27.5,29.5 27.5,23.5 Z"/></g>
</svg>
