<?xml version="1.0" encoding="UTF-8"?>
<!DOCTYPE svg PUBLIC "-//W3C//DTD SVG 1.1//EN" "http://www.w3.org/Graphics/SVG/1.1/DTD/svg11.dtd">
<svg xmlns="http://www.w3.org/2000/svg" version="1.1" width="80px" height="80px" style="shape-rendering:geometricPrecision; text-rendering:geometricPrecision; image-rendering:optimizeQuality; fill-rule:evenodd; clip-rule:evenodd" xmlns:xlink="http://www.w3.org/1999/xlink">
<g><path style="opacity:0.978" fill="#66798f" d="M 7.5,3.5 C 28.8359,3.33337 50.1693,3.50004 71.5,4C 72.4162,4.37424 73.2496,4.87424 74,5.5C 75.1462,16.7404 75.6462,28.0737 75.5,39.5C 85.1667,73.1667 73.1667,85.1667 39.5,75.5C 28.8333,75.3333 18.1667,75.1667 7.5,75C 6.58377,74.6258 5.75044,74.1258 5,73.5C 3.35558,51.5886 3.02225,29.5886 4,7.5C 4.68972,5.64977 5.85639,4.31643 7.5,3.5 Z"/></g>
<g><path style="opacity:1" fill="#d6e0eb" d="M 73.5,63.5 C 72.6836,65.1436 71.3502,66.3103 69.5,67C 49.1667,67.6667 28.8333,67.6667 8.5,67C 7.36362,65.8549 6.36362,64.6883 5.5,63.5C 5.33339,45.1636 5.50006,26.8303 6,8.5C 6.83333,7.66667 7.66667,6.83333 8.5,6C 29.1667,5.33333 49.8333,5.33333 70.5,6C 71.3333,6.83333 72.1667,7.66667 73,8.5C 73.4999,26.8303 73.6666,45.1636 73.5,63.5 Z"/></g>
<g><path style="opacity:1" fill="#36404d" d="M 27.5,34.5 C 24.7967,36.11 21.7967,37.11 18.5,37.5C 18.5,40.5 18.5,43.5 18.5,46.5C 22.226,46.1774 25.8927,46.5108 29.5,47.5C 24.8804,48.4933 20.2137,48.8266 15.5,48.5C 15.5,40.1667 15.5,31.8333 15.5,23.5C 19.8839,23.1744 24.2172,23.5078 28.5,24.5C 25.2317,25.487 21.8984,25.8204 18.5,25.5C 18.5,28.5 18.5,31.5 18.5,34.5C 21.5,34.5 24.5,34.5 27.5,34.5 Z"/></g>
<g><path style="opacity:1" fill="#47515e" d="M 35.5,30.5 C 38.5,30.5 41.5,30.5 44.5,30.5C 44.719,31.675 44.3857,32.675 43.5,33.5C 40.1611,31.7652 37.4944,32.4318 35.5,35.5C 37.4566,37.4848 39.7899,38.9848 42.5,40C 46.0406,42.2825 46.3739,44.9491 43.5,48C 40.2976,49.4833 36.9643,49.8166 33.5,49C 32.269,47.8173 32.269,46.6507 33.5,45.5C 36.8544,47.1132 39.8544,46.7798 42.5,44.5C 39.5483,41.9001 36.3816,39.5668 33,37.5C 32.3333,36.1667 32.3333,34.8333 33,33.5C 34.045,32.6266 34.8783,31.6266 35.5,30.5 Z"/></g>
<g><path style="opacity:1" fill="#424c59" d="M 53.5,30.5 C 56.5,30.5 59.5,30.5 62.5,30.5C 62.719,31.675 62.3857,32.675 61.5,33.5C 53.2192,31.6604 50.0525,34.9937 52,43.5C 54.8227,46.5712 58.156,47.2379 62,45.5C 62.1235,48.6451 60.4568,49.9784 57,49.5C 49.7365,47.6549 47.0698,42.9882 49,35.5C 50.3657,33.6383 51.8657,31.9717 53.5,30.5 Z"/></g>
<g><path style="opacity:1" fill="#6b7480" d="M 27.5,34.5 C 28.404,35.209 28.7373,36.209 28.5,37.5C 25.1667,37.5 21.8333,37.5 18.5,37.5C 21.7967,37.11 24.7967,36.11 27.5,34.5 Z"/></g>
<g><path style="opacity:1" fill="#afc0d3" d="M 5.5,63.5 C 6.36362,64.6883 7.36362,65.8549 8.5,67C 28.8333,67.6667 49.1667,67.6667 69.5,67C 71.3502,66.3103 72.6836,65.1436 73.5,63.5C 74.2964,67.6838 72.963,70.8504 69.5,73C 49.1667,73.6667 28.8333,73.6667 8.5,73C 5.97122,70.3583 4.97122,67.1916 5.5,63.5 Z"/></g>
</svg>
