<?xml version="1.0" encoding="UTF-8"?>
<!DOCTYPE svg PUBLIC "-//W3C//DTD SVG 1.1//EN" "http://www.w3.org/Graphics/SVG/1.1/DTD/svg11.dtd">
<svg xmlns="http://www.w3.org/2000/svg" version="1.1" width="48px" height="48px" style="shape-rendering:geometricPrecision; text-rendering:geometricPrecision; image-rendering:optimizeQuality; fill-rule:evenodd; clip-rule:evenodd" xmlns:xlink="http://www.w3.org/1999/xlink">
<g><path style="opacity:0.973" fill="#0883d8" d="M 40.5,23.5 C 30.1667,23.5 19.8333,23.5 9.5,23.5C 9.5,17.1667 9.5,10.8333 9.5,4.5C 11.1992,4.33982 12.8659,4.50649 14.5,5C 22.6637,10.5829 30.9971,15.9162 39.5,21C 40.2524,21.6708 40.5858,22.5041 40.5,23.5 Z"/></g>
<g><path style="opacity:0.979" fill="#036fc8" d="M 9.5,23.5 C 19.8333,23.5 30.1667,23.5 40.5,23.5C 40.5858,24.4959 40.2524,25.3292 39.5,26C 30.9971,31.0838 22.6637,36.4171 14.5,42C 12.8659,42.4935 11.1992,42.6602 9.5,42.5C 9.5,36.1667 9.5,29.8333 9.5,23.5 Z"/></g>
</svg>
